<svg xmlns="http://www.w3.org/2000/svg" xmlns:xlink="http://www.w3.org/1999/xlink" width="500" zoomAndPan="magnify" viewBox="0 0 375 374.999991" height="500" preserveAspectRatio="xMidYMid meet" version="1.0"><defs><clipPath id="83f6e97d2d"><path d="M 159.597656 211.402344 L 302.847656 211.402344 L 302.847656 354.652344 L 159.597656 354.652344 Z M 159.597656 211.402344 " clip-rule="nonzero"/></clipPath><clipPath id="9cf9495d17"><path d="M 28.519531 20.695312 L 291.019531 20.695312 L 291.019531 283.195312 L 28.519531 283.195312 Z M 28.519531 20.695312 " clip-rule="nonzero"/></clipPath><clipPath id="374e54a5b1"><path d="M 16 211.402344 L 119.390625 211.402344 L 119.390625 275 L 16 275 Z M 16 211.402344 " clip-rule="nonzero"/></clipPath><clipPath id="36c6369096"><path d="M 9.140625 314 L 17 314 L 17 321.652344 L 9.140625 321.652344 Z M 9.140625 314 " clip-rule="nonzero"/></clipPath><clipPath id="cda6fb88b3"><path d="M 223 89 L 365 89 L 365 235 L 223 235 Z M 223 89 " clip-rule="nonzero"/></clipPath><clipPath id="bbb2a6e7bd"><path d="M 274.570312 66.191406 L 383.925781 113.753906 L 330.082031 237.550781 L 220.726562 189.988281 Z M 274.570312 66.191406 " clip-rule="nonzero"/></clipPath><clipPath id="9b393b1857"><path d="M 274.570312 66.191406 L 383.925781 113.753906 L 330.082031 237.550781 L 220.726562 189.988281 Z M 274.570312 66.191406 " clip-rule="nonzero"/></clipPath><clipPath id="8322d6898a"><path d="M 287 120 L 328 120 L 328 159 L 287 159 Z M 287 120 " clip-rule="nonzero"/></clipPath><clipPath id="1a69858c69"><path d="M 274.570312 66.191406 L 383.925781 113.753906 L 330.082031 237.550781 L 220.726562 189.988281 Z M 274.570312 66.191406 " clip-rule="nonzero"/></clipPath><clipPath id="0412ddb430"><path d="M 274.570312 66.191406 L 383.925781 113.753906 L 330.082031 237.550781 L 220.726562 189.988281 Z M 274.570312 66.191406 " clip-rule="nonzero"/></clipPath><clipPath id="55f57cb904"><path d="M 72.355469 23.167969 L 302.605469 23.167969 L 302.605469 354.667969 L 72.355469 354.667969 Z M 72.355469 23.167969 " clip-rule="nonzero"/></clipPath><clipPath id="41839415ad"><path d="M 135.640625 82.160156 L 239.140625 82.160156 L 239.140625 188.660156 L 135.640625 188.660156 Z M 135.640625 82.160156 " clip-rule="nonzero"/></clipPath><clipPath id="af280eeb34"><path d="M 135.738281 197.839844 L 239.238281 197.839844 L 239.238281 201 L 135.738281 201 Z M 135.738281 197.839844 " clip-rule="nonzero"/></clipPath><clipPath id="c7a3fa105f"><path d="M 135.738281 212 L 239.238281 212 L 239.238281 215 L 135.738281 215 Z M 135.738281 212 " clip-rule="nonzero"/></clipPath><clipPath id="139f211c3a"><path d="M 135.738281 226 L 239.238281 226 L 239.238281 229 L 135.738281 229 Z M 135.738281 226 " clip-rule="nonzero"/></clipPath><clipPath id="9be7751c92"><path d="M 135.738281 237.011719 L 165.738281 237.011719 L 165.738281 267 L 135.738281 267 Z M 135.738281 237.011719 " clip-rule="nonzero"/></clipPath><clipPath id="a44663bf99"><path d="M 209.765625 237.011719 L 238.980469 237.011719 L 238.980469 267.011719 L 209.765625 267.011719 Z M 209.765625 237.011719 " clip-rule="nonzero"/></clipPath></defs><g clip-path="url(#83f6e97d2d)"><path fill="#d9d9d9" d="M 302.847656 283.027344 C 302.847656 284.203125 302.816406 285.371094 302.761719 286.542969 C 302.703125 287.714844 302.617188 288.882812 302.5 290.050781 C 302.386719 291.214844 302.242188 292.378906 302.070312 293.539062 C 301.898438 294.699219 301.699219 295.851562 301.46875 297.003906 C 301.242188 298.152344 300.984375 299.296875 300.699219 300.433594 C 300.414062 301.570312 300.101562 302.699219 299.761719 303.820312 C 299.421875 304.941406 299.054688 306.054688 298.660156 307.160156 C 298.265625 308.261719 297.84375 309.355469 297.394531 310.4375 C 296.945312 311.523438 296.472656 312.59375 295.96875 313.652344 C 295.46875 314.710938 294.941406 315.757812 294.390625 316.792969 C 293.835938 317.828125 293.257812 318.847656 292.65625 319.851562 C 292.054688 320.855469 291.425781 321.847656 290.777344 322.820312 C 290.125 323.796875 289.449219 324.753906 288.75 325.695312 C 288.054688 326.636719 287.332031 327.5625 286.589844 328.46875 C 285.84375 329.375 285.078125 330.261719 284.292969 331.128906 C 283.503906 332 282.695312 332.847656 281.867188 333.675781 C 281.039062 334.503906 280.191406 335.3125 279.320312 336.101562 C 278.453125 336.886719 277.566406 337.652344 276.660156 338.394531 C 275.753906 339.140625 274.828125 339.859375 273.886719 340.558594 C 272.945312 341.257812 271.988281 341.933594 271.015625 342.582031 C 270.039062 343.234375 269.050781 343.859375 268.042969 344.464844 C 267.039062 345.066406 266.019531 345.644531 264.984375 346.195312 C 263.953125 346.75 262.90625 347.277344 261.84375 347.777344 C 260.785156 348.277344 259.714844 348.753906 258.632812 349.203125 C 257.546875 349.652344 256.453125 350.074219 255.351562 350.46875 C 254.246094 350.863281 253.136719 351.230469 252.011719 351.570312 C 250.890625 351.910156 249.761719 352.222656 248.625 352.507812 C 247.488281 352.792969 246.34375 353.050781 245.195312 353.277344 C 244.046875 353.507812 242.890625 353.707031 241.730469 353.878906 C 240.570312 354.050781 239.410156 354.195312 238.242188 354.308594 C 237.074219 354.425781 235.90625 354.511719 234.734375 354.566406 C 233.566406 354.625 232.394531 354.652344 231.222656 354.652344 C 230.050781 354.652344 228.878906 354.625 227.707031 354.566406 C 226.535156 354.511719 225.367188 354.425781 224.199219 354.308594 C 223.035156 354.195312 221.871094 354.050781 220.710938 353.878906 C 219.550781 353.707031 218.398438 353.507812 217.25 353.277344 C 216.097656 353.050781 214.957031 352.792969 213.816406 352.507812 C 212.679688 352.222656 211.550781 351.910156 210.429688 351.570312 C 209.308594 351.230469 208.195312 350.863281 207.09375 350.46875 C 205.988281 350.074219 204.894531 349.652344 203.8125 349.203125 C 202.730469 348.753906 201.65625 348.277344 200.597656 347.777344 C 199.539062 347.277344 198.492188 346.75 197.457031 346.195312 C 196.425781 345.644531 195.40625 345.066406 194.398438 344.464844 C 193.394531 343.859375 192.402344 343.234375 191.429688 342.582031 C 190.453125 341.933594 189.496094 341.257812 188.554688 340.558594 C 187.613281 339.859375 186.6875 339.140625 185.78125 338.394531 C 184.878906 337.652344 183.988281 336.886719 183.121094 336.101562 C 182.253906 335.3125 181.402344 334.503906 180.574219 333.675781 C 179.746094 332.847656 178.9375 332 178.152344 331.128906 C 177.363281 330.261719 176.597656 329.375 175.855469 328.46875 C 175.109375 327.5625 174.390625 326.636719 173.691406 325.695312 C 172.992188 324.753906 172.320312 323.796875 171.667969 322.820312 C 171.015625 321.847656 170.390625 320.855469 169.785156 319.851562 C 169.183594 318.847656 168.605469 317.828125 168.054688 316.792969 C 167.5 315.757812 166.972656 314.710938 166.472656 313.652344 C 165.972656 312.59375 165.496094 311.523438 165.046875 310.4375 C 164.601562 309.355469 164.179688 308.261719 163.785156 307.160156 C 163.386719 306.054688 163.019531 304.941406 162.679688 303.820312 C 162.339844 302.699219 162.027344 301.570312 161.742188 300.433594 C 161.457031 299.296875 161.203125 298.152344 160.972656 297.003906 C 160.742188 295.851562 160.542969 294.699219 160.371094 293.539062 C 160.199219 292.378906 160.054688 291.214844 159.941406 290.050781 C 159.828125 288.882812 159.742188 287.714844 159.683594 286.542969 C 159.625 285.371094 159.597656 284.203125 159.597656 283.027344 C 159.597656 281.855469 159.625 280.683594 159.683594 279.515625 C 159.742188 278.34375 159.828125 277.175781 159.941406 276.007812 C 160.054688 274.84375 160.199219 273.679688 160.371094 272.519531 C 160.542969 271.359375 160.742188 270.207031 160.972656 269.054688 C 161.203125 267.90625 161.457031 266.761719 161.742188 265.625 C 162.027344 264.488281 162.339844 263.359375 162.679688 262.238281 C 163.019531 261.117188 163.386719 260.003906 163.785156 258.898438 C 164.179688 257.796875 164.601562 256.703125 165.046875 255.621094 C 165.496094 254.535156 165.972656 253.464844 166.472656 252.40625 C 166.972656 251.347656 167.5 250.300781 168.054688 249.265625 C 168.605469 248.230469 169.183594 247.210938 169.785156 246.207031 C 170.390625 245.199219 171.015625 244.210938 171.667969 243.238281 C 172.320312 242.261719 172.992188 241.304688 173.691406 240.363281 C 174.390625 239.421875 175.109375 238.496094 175.855469 237.589844 C 176.597656 236.683594 177.363281 235.796875 178.152344 234.929688 C 178.9375 234.058594 179.746094 233.210938 180.574219 232.382812 C 181.402344 231.554688 182.253906 230.746094 183.121094 229.957031 C 183.988281 229.171875 184.878906 228.40625 185.78125 227.664062 C 186.6875 226.917969 187.613281 226.199219 188.554688 225.5 C 189.496094 224.800781 190.453125 224.125 191.429688 223.476562 C 192.402344 222.824219 193.394531 222.195312 194.398438 221.59375 C 195.40625 220.992188 196.425781 220.414062 197.457031 219.863281 C 198.492188 219.308594 199.539062 218.78125 200.597656 218.28125 C 201.65625 217.78125 202.730469 217.304688 203.8125 216.855469 C 204.894531 216.40625 205.988281 215.984375 207.09375 215.589844 C 208.195312 215.195312 209.308594 214.828125 210.429688 214.488281 C 211.550781 214.148438 212.679688 213.835938 213.816406 213.550781 C 214.957031 213.265625 216.097656 213.007812 217.25 212.78125 C 218.398438 212.550781 219.550781 212.351562 220.710938 212.179688 C 221.871094 212.007812 223.035156 211.863281 224.199219 211.75 C 225.367188 211.632812 226.535156 211.546875 227.707031 211.492188 C 228.878906 211.433594 230.050781 211.402344 231.222656 211.402344 C 232.394531 211.402344 233.566406 211.433594 234.734375 211.492188 C 235.90625 211.546875 237.074219 211.632812 238.242188 211.75 C 239.410156 211.863281 240.570312 212.007812 241.730469 212.179688 C 242.890625 212.351562 244.046875 212.550781 245.195312 212.78125 C 246.34375 213.007812 247.488281 213.265625 248.625 213.550781 C 249.761719 213.835938 250.890625 214.148438 252.011719 214.488281 C 253.136719 214.828125 254.246094 215.195312 255.351562 215.589844 C 256.453125 215.984375 257.546875 216.40625 258.632812 216.855469 C 259.714844 217.304688 260.785156 217.78125 261.84375 218.28125 C 262.90625 218.78125 263.953125 219.308594 264.984375 219.863281 C 266.019531 220.414062 267.039062 220.992188 268.042969 221.59375 C 269.050781 222.195312 270.039062 222.824219 271.015625 223.476562 C 271.988281 224.125 272.945312 224.800781 273.886719 225.5 C 274.828125 226.199219 275.753906 226.917969 276.660156 227.664062 C 277.566406 228.40625 278.453125 229.171875 279.320312 229.957031 C 280.191406 230.746094 281.039062 231.554688 281.867188 232.382812 C 282.695312 233.210938 283.503906 234.058594 284.292969 234.929688 C 285.078125 235.796875 285.84375 236.683594 286.589844 237.589844 C 287.332031 238.496094 288.054688 239.421875 288.75 240.363281 C 289.449219 241.304688 290.125 242.261719 290.777344 243.238281 C 291.425781 244.210938 292.054688 245.199219 292.65625 246.207031 C 293.257812 247.210938 293.835938 248.230469 294.390625 249.265625 C 294.941406 250.300781 295.46875 251.347656 295.96875 252.40625 C 296.472656 253.464844 296.945312 254.535156 297.394531 255.621094 C 297.84375 256.703125 298.265625 257.796875 298.660156 258.898438 C 299.054688 260.003906 299.421875 261.117188 299.761719 262.238281 C 300.101562 263.359375 300.414062 264.488281 300.699219 265.625 C 300.984375 266.761719 301.242188 267.90625 301.46875 269.054688 C 301.699219 270.207031 301.898438 271.359375 302.070312 272.519531 C 302.242188 273.679688 302.386719 274.84375 302.5 276.007812 C 302.617188 277.175781 302.703125 278.34375 302.761719 279.515625 C 302.816406 280.683594 302.847656 281.855469 302.847656 283.027344 Z M 302.847656 283.027344 " fill-opacity="1" fill-rule="nonzero"/></g><g clip-path="url(#9cf9495d17)"><path fill="#d9d9d9" d="M 291.019531 151.945312 C 291.019531 154.09375 290.964844 156.242188 290.859375 158.386719 C 290.753906 160.53125 290.597656 162.671875 290.386719 164.8125 C 290.175781 166.949219 289.914062 169.078125 289.597656 171.203125 C 289.28125 173.328125 288.914062 175.445312 288.496094 177.550781 C 288.078125 179.660156 287.605469 181.753906 287.085938 183.835938 C 286.5625 185.921875 285.988281 187.992188 285.367188 190.046875 C 284.742188 192.101562 284.070312 194.140625 283.34375 196.164062 C 282.621094 198.183594 281.847656 200.1875 281.027344 202.171875 C 280.203125 204.15625 279.335938 206.121094 278.417969 208.0625 C 277.496094 210.003906 276.53125 211.921875 275.519531 213.816406 C 274.507812 215.710938 273.449219 217.578125 272.34375 219.421875 C 271.242188 221.265625 270.089844 223.078125 268.898438 224.863281 C 267.703125 226.652344 266.46875 228.40625 265.1875 230.132812 C 263.910156 231.855469 262.589844 233.550781 261.226562 235.210938 C 259.863281 236.871094 258.460938 238.496094 257.015625 240.089844 C 255.574219 241.679688 254.09375 243.234375 252.574219 244.753906 C 251.054688 246.273438 249.5 247.753906 247.910156 249.195312 C 246.316406 250.636719 244.691406 252.042969 243.03125 253.402344 C 241.371094 254.765625 239.679688 256.085938 237.953125 257.367188 C 236.226562 258.648438 234.472656 259.882812 232.6875 261.078125 C 230.898438 262.269531 229.085938 263.417969 227.242188 264.523438 C 225.402344 265.628906 223.53125 266.6875 221.636719 267.699219 C 219.746094 268.710938 217.824219 269.675781 215.882812 270.59375 C 213.941406 271.511719 211.980469 272.382812 209.996094 273.207031 C 208.011719 274.027344 206.007812 274.800781 203.984375 275.523438 C 201.960938 276.246094 199.921875 276.921875 197.867188 277.542969 C 195.8125 278.167969 193.742188 278.742188 191.660156 279.261719 C 189.574219 279.785156 187.480469 280.253906 185.375 280.675781 C 183.265625 281.09375 181.152344 281.460938 179.027344 281.777344 C 176.902344 282.089844 174.769531 282.355469 172.632812 282.5625 C 170.496094 282.773438 168.351562 282.933594 166.207031 283.039062 C 164.0625 283.144531 161.914062 283.195312 159.769531 283.195312 C 157.621094 283.195312 155.472656 283.144531 153.328125 283.039062 C 151.183594 282.933594 149.039062 282.773438 146.902344 282.5625 C 144.765625 282.355469 142.632812 282.089844 140.507812 281.777344 C 138.382812 281.460938 136.269531 281.09375 134.164062 280.675781 C 132.054688 280.253906 129.960938 279.785156 127.875 279.261719 C 125.792969 278.742188 123.722656 278.167969 121.667969 277.542969 C 119.613281 276.921875 117.574219 276.246094 115.550781 275.523438 C 113.527344 274.800781 111.523438 274.027344 109.539062 273.207031 C 107.554688 272.382812 105.59375 271.511719 103.652344 270.59375 C 101.710938 269.675781 99.792969 268.710938 97.898438 267.699219 C 96.003906 266.6875 94.132812 265.628906 92.292969 264.523438 C 90.449219 263.417969 88.636719 262.269531 86.847656 261.078125 C 85.0625 259.882812 83.308594 258.648438 81.582031 257.367188 C 79.855469 256.085938 78.164062 254.765625 76.503906 253.402344 C 74.84375 252.042969 73.21875 250.636719 71.625 249.195312 C 70.035156 247.753906 68.480469 246.273438 66.960938 244.753906 C 65.441406 243.234375 63.960938 241.679688 62.519531 240.089844 C 61.074219 238.496094 59.671875 236.871094 58.308594 235.210938 C 56.949219 233.550781 55.625 231.855469 54.347656 230.132812 C 53.066406 228.40625 51.832031 226.652344 50.636719 224.863281 C 49.445312 223.078125 48.296875 221.265625 47.191406 219.421875 C 46.085938 217.578125 45.027344 215.710938 44.015625 213.816406 C 43.003906 211.921875 42.039062 210.003906 41.117188 208.0625 C 40.199219 206.121094 39.332031 204.15625 38.507812 202.171875 C 37.6875 200.1875 36.914062 198.183594 36.191406 196.164062 C 35.464844 194.140625 34.792969 192.101562 34.167969 190.046875 C 33.546875 187.992188 32.972656 185.921875 32.449219 183.835938 C 31.929688 181.753906 31.457031 179.660156 31.039062 177.550781 C 30.621094 175.445312 30.253906 173.328125 29.9375 171.203125 C 29.625 169.078125 29.359375 166.949219 29.148438 164.8125 C 28.9375 162.671875 28.78125 160.53125 28.675781 158.386719 C 28.570312 156.242188 28.519531 154.09375 28.519531 151.945312 C 28.519531 149.796875 28.570312 147.652344 28.675781 145.507812 C 28.78125 143.359375 28.9375 141.21875 29.148438 139.082031 C 29.359375 136.945312 29.625 134.8125 29.9375 132.6875 C 30.253906 130.5625 30.621094 128.449219 31.039062 126.339844 C 31.457031 124.234375 31.929688 122.140625 32.449219 120.054688 C 32.972656 117.972656 33.546875 115.902344 34.167969 113.847656 C 34.792969 111.789062 35.464844 109.75 36.191406 107.730469 C 36.914062 105.707031 37.6875 103.703125 38.507812 101.71875 C 39.332031 99.734375 40.199219 97.769531 41.117188 95.828125 C 42.039062 93.886719 43.003906 91.96875 44.015625 90.074219 C 45.027344 88.179688 46.085938 86.3125 47.191406 84.46875 C 48.296875 82.628906 49.445312 80.8125 50.636719 79.027344 C 51.832031 77.242188 53.066406 75.484375 54.347656 73.761719 C 55.625 72.035156 56.949219 70.34375 58.308594 68.683594 C 59.671875 67.023438 61.074219 65.394531 62.519531 63.804688 C 63.960938 62.210938 65.441406 60.65625 66.960938 59.136719 C 68.480469 57.621094 70.035156 56.140625 71.625 54.695312 C 73.21875 53.253906 74.84375 51.851562 76.503906 50.488281 C 78.164062 49.125 79.855469 47.804688 81.582031 46.523438 C 83.308594 45.246094 85.0625 44.007812 86.847656 42.816406 C 88.636719 41.621094 90.449219 40.472656 92.292969 39.371094 C 94.132812 38.265625 96.003906 37.207031 97.898438 36.195312 C 99.792969 35.179688 101.710938 34.214844 103.652344 33.296875 C 105.59375 32.378906 107.554688 31.507812 109.539062 30.6875 C 111.523438 29.863281 113.527344 29.09375 115.550781 28.367188 C 117.574219 27.644531 119.613281 26.972656 121.667969 26.347656 C 123.722656 25.722656 125.792969 25.152344 127.875 24.628906 C 129.960938 24.109375 132.054688 23.636719 134.160156 23.21875 C 136.269531 22.800781 138.382812 22.433594 140.507812 22.117188 C 142.632812 21.800781 144.765625 21.539062 146.902344 21.328125 C 149.039062 21.117188 151.183594 20.960938 153.328125 20.855469 C 155.472656 20.75 157.621094 20.695312 159.769531 20.695312 C 161.914062 20.695312 164.0625 20.75 166.207031 20.855469 C 168.351562 20.960938 170.496094 21.117188 172.632812 21.328125 C 174.769531 21.539062 176.902344 21.800781 179.027344 22.117188 C 181.152344 22.433594 183.265625 22.800781 185.375 23.21875 C 187.480469 23.636719 189.574219 24.109375 191.660156 24.628906 C 193.742188 25.152344 195.8125 25.722656 197.867188 26.347656 C 199.921875 26.972656 201.960938 27.644531 203.984375 28.367188 C 206.007812 29.09375 208.011719 29.863281 209.996094 30.6875 C 211.980469 31.507812 213.941406 32.378906 215.882812 33.296875 C 217.824219 34.214844 219.746094 35.179688 221.636719 36.195312 C 223.53125 37.207031 225.402344 38.265625 227.242188 39.371094 C 229.085938 40.472656 230.898438 41.621094 232.6875 42.816406 C 234.472656 44.007812 236.226562 45.246094 237.953125 46.523438 C 239.679688 47.804688 241.371094 49.125 243.03125 50.488281 C 244.691406 51.851562 246.316406 53.253906 247.910156 54.695312 C 249.5 56.140625 251.054688 57.621094 252.574219 59.136719 C 254.09375 60.65625 255.574219 62.210938 257.015625 63.804688 C 258.460938 65.394531 259.863281 67.023438 261.226562 68.683594 C 262.589844 70.34375 263.910156 72.035156 265.1875 73.761719 C 266.46875 75.484375 267.703125 77.242188 268.898438 79.027344 C 270.089844 80.8125 271.242188 82.628906 272.34375 84.46875 C 273.449219 86.3125 274.507812 88.179688 275.519531 90.074219 C 276.53125 91.96875 277.496094 93.886719 278.417969 95.828125 C 279.335938 97.769531 280.203125 99.734375 281.027344 101.71875 C 281.847656 103.703125 282.621094 105.707031 283.34375 107.730469 C 284.070312 109.75 284.742188 111.789062 285.367188 113.847656 C 285.988281 115.902344 286.5625 117.972656 287.085938 120.054688 C 287.605469 122.140625 288.078125 124.234375 288.496094 126.339844 C 288.914062 128.449219 289.28125 130.5625 289.597656 132.6875 C 289.914062 134.8125 290.175781 136.945312 290.386719 139.082031 C 290.597656 141.21875 290.753906 143.359375 290.859375 145.507812 C 290.964844 147.652344 291.019531 149.796875 291.019531 151.945312 Z M 291.019531 151.945312 " fill-opacity="1" fill-rule="nonzero"/></g><g clip-path="url(#374e54a5b1)"><path fill="#545454" d="M 118.1875 211.429688 C 119.210938 212.085938 119.390625 212.945312 119.039062 214.101562 C 114.695312 228.410156 110.382812 242.726562 106.0625 257.039062 C 105.597656 258.585938 105.242188 258.84375 103.609375 258.84375 C 94.113281 258.84375 84.617188 258.851562 75.121094 258.832031 C 74.421875 258.832031 73.9375 259.023438 73.457031 259.546875 C 69.292969 264.082031 65.101562 268.585938 60.917969 273.097656 C 60.625 273.410156 60.382812 273.808594 60.027344 274.023438 C 59.453125 274.371094 58.800781 274.832031 58.183594 274.832031 C 57.34375 274.832031 57.027344 274.042969 56.820312 273.261719 C 55.566406 268.539062 54.289062 263.816406 53.015625 259.097656 C 52.285156 256.382812 51.554688 253.667969 50.8125 250.90625 L 49.46875 250.90625 C 39.292969 250.90625 29.117188 250.90625 18.941406 250.90625 C 18.546875 250.90625 18.0625 251.011719 17.785156 250.828125 C 17.289062 250.5 16.652344 250.027344 16.574219 249.535156 C 16.496094 249.046875 16.96875 248.417969 17.324219 247.9375 C 17.507812 247.695312 17.953125 247.628906 18.285156 247.507812 C 50.910156 235.625 83.53125 223.75 116.152344 211.867188 C 116.480469 211.75 116.789062 211.578125 117.109375 211.429688 C 117.46875 211.429688 117.828125 211.429688 118.1875 211.429688 Z M 114.527344 217.804688 L 114.355469 217.695312 C 98.445312 230.269531 82.53125 242.847656 66.40625 255.59375 L 103.128906 255.59375 C 106.929688 242.992188 110.730469 230.398438 114.527344 217.804688 Z M 100.761719 224.328125 C 100.730469 224.28125 100.703125 224.234375 100.671875 224.191406 C 100.339844 224.367188 100 224.539062 99.671875 224.71875 C 90.921875 229.519531 82.171875 234.328125 73.421875 239.132812 C 71.941406 239.945312 71.0625 239.886719 70.511719 238.945312 C 69.945312 237.976562 70.386719 237.132812 71.894531 236.304688 C 79.921875 231.890625 87.949219 227.476562 95.976562 223.0625 C 96.300781 222.886719 96.621094 222.703125 96.941406 222.523438 C 96.910156 222.457031 96.882812 222.394531 96.851562 222.328125 C 73.808594 230.714844 50.761719 239.109375 27.71875 247.5 C 35.550781 247.6875 43.324219 247.691406 51.101562 247.667969 C 51.5 247.667969 51.925781 247.460938 52.289062 247.261719 C 56.445312 244.941406 60.585938 242.597656 64.738281 240.273438 C 65.140625 240.046875 65.59375 239.738281 66.003906 239.765625 C 66.519531 239.796875 67.191406 240.007812 67.464844 240.382812 C 67.742188 240.753906 67.78125 241.492188 67.605469 241.945312 C 67.4375 242.378906 66.898438 242.726562 66.449219 242.980469 C 62.558594 245.1875 58.664062 247.390625 54.742188 249.535156 C 54.066406 249.910156 53.949219 250.261719 54.148438 250.960938 C 55.011719 254.015625 55.820312 257.089844 56.648438 260.15625 C 57.15625 262.039062 57.664062 263.925781 58.167969 265.808594 C 58.921875 263.046875 59.421875 260.285156 60.070312 257.566406 C 60.246094 256.835938 60.722656 256.03125 61.304688 255.566406 C 72.035156 247.03125 82.800781 238.539062 93.554688 230.035156 C 95.960938 228.136719 98.359375 226.230469 100.761719 224.328125 Z M 61.410156 267.851562 C 64.238281 264.804688 66.921875 261.917969 69.707031 258.917969 L 63.042969 258.917969 C 62.492188 261.667969 61.949219 264.355469 61.417969 267.046875 C 61.382812 267.214844 61.410156 267.394531 61.410156 267.851562 Z M 61.410156 267.851562 " fill-opacity="1" fill-rule="nonzero"/></g><g clip-path="url(#36c6369096)"><path fill="#545454" d="M 9.152344 319.125 C 10.453125 317.71875 11.738281 316.292969 13.066406 314.90625 C 13.894531 314.042969 14.800781 313.984375 15.515625 314.65625 C 16.21875 315.324219 16.191406 316.230469 15.386719 317.113281 C 14.398438 318.191406 13.390625 319.246094 12.378906 320.300781 C 11.109375 321.625 10.300781 321.59375 9.152344 320.199219 C 9.152344 319.839844 9.152344 319.484375 9.152344 319.125 Z M 9.152344 319.125 " fill-opacity="1" fill-rule="nonzero"/></g><path fill="#545454" d="M 27.082031 296.113281 C 25.042969 296.375 23.363281 296.746094 21.667969 296.785156 C 16.398438 296.898438 12.023438 293.082031 11.378906 287.757812 C 10.796875 282.929688 13.789062 278.15625 18.996094 276.769531 C 25.246094 275.105469 31.550781 279.855469 31.71875 286.316406 C 31.734375 287.027344 31.71875 287.742188 31.71875 288.703125 C 32.113281 288.335938 32.382812 288.097656 32.640625 287.84375 C 36.820312 283.671875 41.003906 279.5 45.1875 275.335938 C 45.460938 275.058594 45.746094 274.773438 46.074219 274.5625 C 46.777344 274.117188 47.46875 274.242188 48.027344 274.816406 C 48.59375 275.390625 48.660156 276.085938 48.203125 276.773438 C 48.027344 277.039062 47.792969 277.269531 47.566406 277.5 C 42.753906 282.304688 37.992188 287.164062 33.085938 291.871094 C 31.628906 293.273438 30.613281 294.71875 30.03125 296.675781 C 28.691406 301.164062 26.21875 305.042969 22.976562 308.421875 C 21.738281 309.714844 20.472656 310.980469 19.191406 312.230469 C 18.328125 313.070312 17.410156 313.109375 16.722656 312.40625 C 16.039062 311.707031 16.128906 310.839844 16.9375 309.9375 C 19.226562 307.382812 21.65625 304.9375 23.726562 302.21875 C 25.089844 300.433594 25.929688 298.253906 27.082031 296.113281 Z M 28.496094 287.648438 C 28.496094 287.144531 28.507812 286.824219 28.496094 286.5 C 28.355469 282.964844 25.816406 280.160156 22.355469 279.714844 C 19.046875 279.289062 15.824219 281.398438 14.832031 284.636719 C 13.855469 287.828125 15.34375 291.320312 18.4375 292.847656 C 21.125 294.171875 23.804688 293.535156 26.46875 292.621094 C 27.640625 292.21875 28.292969 291.542969 28.285156 290.242188 C 28.277344 289.316406 28.433594 288.390625 28.5 287.648438 Z M 28.496094 287.648438 " fill-opacity="1" fill-rule="nonzero"/><path fill="#545454" d="M 82.65625 289.003906 C 76.085938 292.285156 71.539062 289.117188 70.074219 285.394531 C 68.421875 281.21875 70.613281 276.527344 74.859375 275.019531 C 78.746094 273.636719 83.867188 275.394531 85.402344 281.074219 C 85.625 280.757812 85.808594 280.519531 85.964844 280.265625 C 88.007812 276.953125 90.046875 273.636719 92.089844 270.324219 C 92.277344 270.019531 92.453125 269.703125 92.6875 269.433594 C 93.257812 268.777344 93.980469 268.648438 94.714844 269.070312 C 95.464844 269.503906 95.65625 270.214844 95.371094 271.019531 C 95.25 271.351562 95.050781 271.65625 94.863281 271.957031 C 91.972656 276.59375 89.074219 281.226562 86.195312 285.867188 C 86.035156 286.125 85.933594 286.457031 85.925781 286.757812 C 85.800781 291.375 84.402344 295.585938 81.917969 299.457031 C 81.550781 300.027344 81.207031 300.613281 80.851562 301.191406 C 80.105469 302.390625 79.1875 302.785156 78.328125 302.273438 C 77.394531 301.714844 77.363281 300.816406 78.121094 299.46875 C 79.203125 297.546875 80.34375 295.636719 81.25 293.628906 C 81.871094 292.257812 82.148438 290.726562 82.65625 289 Z M 77.363281 287.214844 C 78.871094 287.257812 81.324219 286.296875 82.328125 285.230469 C 82.496094 285.054688 82.632812 284.726562 82.597656 284.5 C 82.417969 283.304688 82.296875 282.082031 81.929688 280.9375 C 81.207031 278.652344 78.808594 277.382812 76.472656 277.90625 C 74.070312 278.441406 72.5625 280.558594 72.796875 283.0625 C 73.007812 285.347656 74.992188 287.148438 77.359375 287.214844 Z M 77.363281 287.214844 " fill-opacity="1" fill-rule="nonzero"/><path fill="#545454" d="M 57.09375 295.058594 C 56.757812 295.703125 56.585938 296.136719 56.324219 296.507812 C 54.4375 299.203125 52.535156 301.886719 50.625 304.5625 C 49.882812 305.601562 48.960938 305.867188 48.164062 305.328125 C 47.304688 304.746094 47.230469 303.796875 48 302.699219 C 49.933594 299.949219 51.882812 297.207031 53.832031 294.472656 C 54.304688 293.808594 54.964844 293.339844 55.753906 293.742188 C 56.285156 294.011719 56.648438 294.605469 57.09375 295.0625 Z M 57.09375 295.058594 " fill-opacity="1" fill-rule="nonzero"/><g clip-path="url(#cda6fb88b3)"><g clip-path="url(#bbb2a6e7bd)"><g clip-path="url(#9b393b1857)"><path fill="#545454" d="M 330.6875 90.699219 C 332.835938 92.449219 333.824219 94.898438 334.804688 97.390625 C 337.203125 103.5 339.664062 109.589844 342.167969 115.65625 C 342.433594 116.292969 343.074219 116.941406 343.703125 117.222656 C 348.601562 119.425781 353.546875 121.535156 358.46875 123.691406 C 363.585938 125.929688 365.394531 130.539062 363.1875 135.664062 C 362.667969 136.875 362.160156 138.085938 361.605469 139.28125 C 361.0625 140.445312 360.097656 140.875 359.058594 140.472656 C 357.988281 140.058594 357.535156 138.96875 358.011719 137.753906 C 358.523438 136.449219 359.125 135.175781 359.671875 133.882812 C 360.875 131.054688 359.953125 128.652344 357.136719 127.425781 C 347.410156 123.175781 337.671875 118.949219 327.9375 114.714844 C 313.117188 108.269531 298.292969 101.824219 283.46875 95.375 C 279.914062 93.828125 277.761719 94.667969 276.222656 98.203125 C 271.972656 107.980469 267.726562 117.761719 263.453125 127.523438 C 263.109375 128.304688 263.089844 128.957031 263.40625 129.753906 C 269.296875 144.703125 275.164062 159.65625 281.003906 174.625 C 281.34375 175.488281 281.742188 175.738281 282.632812 175.621094 C 284.410156 175.386719 286.195312 175.234375 287.980469 175.113281 C 290.828125 174.914062 293.21875 175.898438 295.050781 178.089844 C 296.226562 179.496094 297.359375 180.945312 298.414062 182.441406 C 298.96875 183.234375 299.449219 183.347656 300.347656 182.988281 C 306.925781 180.339844 313.527344 177.753906 320.125 175.144531 C 328.433594 171.863281 336.734375 168.574219 345.050781 165.320312 C 345.898438 164.992188 346.382812 164.503906 346.738281 163.671875 C 349.1875 157.945312 351.6875 152.238281 354.175781 146.527344 C 354.347656 146.125 354.496094 145.695312 354.746094 145.34375 C 355.382812 144.445312 356.257812 144.125 357.265625 144.636719 C 358.257812 145.136719 358.605469 146 358.203125 147.058594 C 357.800781 148.125 357.230469 149.132812 356.890625 150.214844 C 356.703125 150.820312 356.644531 151.59375 356.855469 152.167969 C 357.941406 155.082031 359.109375 157.960938 360.300781 160.832031 C 361.351562 163.359375 361.292969 165.824219 360.191406 168.34375 C 351.339844 188.652344 342.519531 208.976562 333.667969 229.285156 C 331.523438 234.199219 326.851562 235.996094 321.957031 233.875 C 315.863281 231.234375 309.777344 228.578125 303.6875 225.929688 C 303.328125 225.773438 302.9375 225.648438 302.636719 225.40625 C 301.828125 224.769531 301.554688 223.933594 302.019531 222.964844 C 302.457031 222.050781 303.238281 221.734375 304.191406 221.90625 C 304.613281 221.984375 305.011719 222.203125 305.410156 222.378906 C 311.5 225.027344 317.585938 227.679688 323.679688 230.320312 C 325.886719 231.269531 327.679688 230.867188 329.300781 229.03125 C 328.851562 228.433594 328.390625 227.808594 327.917969 227.195312 C 316.25 212.039062 304.558594 196.898438 292.9375 181.699219 C 291.363281 179.640625 289.582031 178.859375 286.984375 179.113281 C 267.6875 181 248.378906 182.789062 229.070312 184.609375 C 228.597656 184.65625 228.125 184.714844 227.664062 184.765625 C 227.1875 186.660156 228.046875 188.519531 229.835938 189.480469 C 230.296875 189.726562 230.789062 189.917969 231.269531 190.128906 C 252.742188 199.46875 274.210938 208.804688 295.6875 218.144531 C 297.617188 218.984375 298.238281 219.945312 297.660156 221.199219 C 297.101562 222.421875 296.027344 222.601562 294.15625 221.785156 C 272.523438 212.378906 250.890625 202.96875 229.257812 193.558594 C 224.03125 191.285156 222.222656 186.746094 224.488281 181.515625 C 229.097656 170.890625 233.726562 160.273438 238.347656 149.65625 C 238.503906 149.292969 238.65625 148.921875 238.875 148.597656 C 239.410156 147.820312 240.160156 147.558594 241.050781 147.863281 C 241.992188 148.183594 242.492188 148.871094 242.359375 149.871094 C 242.289062 150.421875 242.054688 150.964844 241.832031 151.484375 C 237.847656 160.660156 233.855469 169.832031 229.867188 179.003906 L 229.15625 180.636719 C 245.320312 179.113281 261.21875 177.617188 276.894531 176.140625 C 269.765625 157.75 262.625 139.34375 255.40625 120.742188 C 255.042969 121.421875 254.660156 122.019531 254.378906 122.667969 C 251.617188 128.980469 248.878906 135.296875 246.128906 141.613281 C 245.289062 143.539062 244.296875 144.167969 243.046875 143.578125 C 241.839844 143.011719 241.683594 141.972656 242.515625 140.054688 C 245.265625 133.738281 248.054688 127.441406 250.738281 121.097656 C 251.910156 118.335938 253.789062 116.484375 256.605469 115.480469 C 259.40625 114.480469 262.183594 113.398438 264.925781 112.246094 C 265.527344 111.996094 266.144531 111.394531 266.414062 110.800781 C 268.570312 106 270.636719 101.160156 272.746094 96.332031 C 274.980469 91.222656 279.597656 89.402344 284.722656 91.617188 C 289.570312 93.710938 294.429688 95.804688 299.253906 97.960938 C 300.207031 98.386719 301 98.410156 301.972656 98.027344 C 308.042969 95.640625 314.148438 93.347656 320.214844 90.953125 C 322.667969 89.984375 325.101562 89.097656 327.796875 89.449219 L 330.683594 90.703125 Z M 357.253906 164.894531 C 338.613281 172.34375 320.277344 179.671875 301.949219 186.996094 C 311.585938 199.503906 321.339844 212.167969 331.152344 224.902344 Z M 337.34375 114.421875 C 337.136719 113.847656 337.039062 113.5625 336.925781 113.28125 C 334.710938 107.761719 332.5 102.238281 330.273438 96.726562 C 329.015625 93.617188 326.792969 92.664062 323.65625 93.871094 C 318.1875 95.972656 312.71875 98.085938 307.257812 100.199219 C 306.878906 100.34375 306.519531 100.539062 305.984375 100.785156 Z M 260.945312 123.164062 L 263.53125 117.21875 C 262.054688 117.824219 260.65625 118.398438 259.566406 118.84375 C 260 120.199219 260.457031 121.632812 260.945312 123.160156 Z M 354.253906 156.5 L 351.613281 162.574219 C 353.128906 161.984375 354.53125 161.441406 355.859375 160.925781 C 355.34375 159.496094 354.828125 158.082031 354.253906 156.503906 Z M 354.253906 156.5 " fill-opacity="1" fill-rule="nonzero"/></g></g></g><g clip-path="url(#8322d6898a)"><g clip-path="url(#1a69858c69)"><g clip-path="url(#0412ddb430)"><path fill="#545454" d="M 308.675781 149.628906 C 300.691406 152.121094 295.835938 144.902344 297.667969 137.75 C 298.617188 134.042969 300.648438 131.121094 304.269531 129.574219 C 308.199219 127.90625 312.128906 128.980469 314.789062 132.363281 C 314.894531 132.496094 315.015625 132.613281 315.136719 132.742188 C 316.398438 130.972656 317.261719 130.589844 318.40625 131.261719 C 319.496094 131.894531 319.574219 132.796875 318.722656 134.738281 C 316.835938 139.039062 314.960938 143.339844 313.0625 147.632812 C 312.613281 148.652344 312.25 149.832031 313.140625 150.558594 C 313.859375 151.144531 315.085938 151.515625 315.984375 151.363281 C 317.066406 151.179688 318.210938 150.53125 319.03125 149.761719 C 326.90625 142.390625 323.5 131.800781 317.238281 127.105469 C 310.117188 121.769531 299.550781 123.511719 294.640625 130.894531 C 289.484375 138.644531 291.710938 148.929688 299.546875 153.5625 C 299.996094 153.832031 300.457031 154.085938 300.90625 154.351562 C 301.980469 154.992188 302.339844 156.023438 301.84375 157.007812 C 301.308594 158.070312 300.144531 158.378906 298.910156 157.75 C 295.695312 156.109375 293.0625 153.796875 291.089844 150.761719 C 286.398438 143.558594 286.910156 134.078125 292.324219 127.457031 C 297.933594 120.589844 307.027344 118.207031 315.167969 121.472656 C 323.105469 124.65625 328.144531 132.6875 327.472656 141.25 C 327.066406 146.398438 324.542969 150.472656 320.574219 153.621094 C 318.238281 155.480469 315.53125 155.949219 312.65625 154.9375 C 310.199219 154.078125 309.015625 152.21875 308.679688 149.632812 Z M 311.71875 141.277344 C 311.941406 140.167969 312.28125 139.066406 312.355469 137.949219 C 312.480469 136.160156 311.996094 134.542969 310.382812 133.515625 C 308.660156 132.417969 306.890625 132.5625 305.164062 133.515625 C 301.984375 135.257812 300.3125 140 301.667969 143.355469 C 302.742188 146.019531 305.21875 146.953125 307.761719 145.609375 C 309.578125 144.652344 310.769531 143.113281 311.722656 141.28125 Z M 311.71875 141.277344 " fill-opacity="1" fill-rule="nonzero"/></g></g></g><g clip-path="url(#55f57cb904)"><path fill="#ffdb27" d="M 233.886719 354.667969 L 72.460938 316.910156 L 141.078125 23.167969 L 302.507812 60.925781 L 233.886719 354.667969 " fill-opacity="1" fill-rule="nonzero"/></g><path fill="#000000" d="M 130.132812 77.410156 L 244.835938 77.410156 L 244.835938 273.8125 L 130.132812 273.8125 Z M 125.109375 283.867188 L 249.859375 283.867188 C 252.632812 283.867188 254.882812 281.617188 254.882812 278.839844 L 254.882812 72.382812 C 254.882812 69.605469 252.632812 67.355469 249.859375 67.355469 L 125.109375 67.355469 C 122.332031 67.355469 120.085938 69.605469 120.085938 72.382812 L 120.085938 278.839844 C 120.085938 281.617188 122.332031 283.867188 125.109375 283.867188 " fill-opacity="1" fill-rule="nonzero"/><path fill="#000000" d="M 261.839844 322.570312 L 113.128906 322.570312 L 113.128906 55.265625 L 261.839844 55.265625 Z M 266.863281 45.210938 L 108.105469 45.210938 C 105.328125 45.210938 103.078125 47.460938 103.078125 50.238281 L 103.078125 327.597656 C 103.078125 330.375 105.328125 332.625 108.105469 332.625 L 266.863281 332.625 C 269.636719 332.625 271.886719 330.375 271.886719 327.597656 L 271.886719 50.238281 C 271.886719 47.460938 269.636719 45.210938 266.863281 45.210938 " fill-opacity="1" fill-rule="nonzero"/><path fill="#000000" d="M 201.292969 306.933594 L 173.671875 306.933594 L 173.671875 299.492188 L 201.292969 299.492188 Z M 206.316406 289.4375 L 168.648438 289.4375 C 165.875 289.4375 163.625 291.691406 163.625 294.46875 L 163.625 311.960938 C 163.625 314.738281 165.875 316.988281 168.648438 316.988281 L 206.316406 316.988281 C 209.09375 316.988281 211.339844 314.738281 211.339844 311.960938 L 211.339844 294.46875 C 211.339844 291.691406 209.09375 289.4375 206.316406 289.4375 " fill-opacity="1" fill-rule="nonzero"/><g clip-path="url(#41839415ad)"><path fill="#000000" d="M 238.851562 180.996094 C 238.851562 180.996094 237.796875 172.382812 237.710938 171.800781 C 237.609375 171.171875 235.992188 163.90625 233.871094 160.566406 C 232.835938 158.953125 228.863281 155.359375 227.964844 155.210938 C 228.359375 154.148438 226.929688 153.992188 226.15625 153.875 C 221.152344 153.132812 220.941406 152.679688 219.269531 151.621094 C 218.878906 151.378906 218.46875 151.101562 218.257812 151.128906 C 217.902344 151.1875 217.535156 151.132812 217.183594 151.234375 C 216.964844 151.296875 216.804688 151.109375 216.632812 151.019531 C 215.875 150.613281 214.300781 150.078125 213.167969 149.960938 C 212.347656 149.863281 211.664062 149.371094 210.898438 149.105469 C 210.347656 148.925781 209.773438 148.851562 209.214844 148.722656 C 207.613281 148.367188 206.363281 147.382812 204.824219 147.667969 C 204.796875 147.761719 204.773438 147.851562 204.75 147.945312 C 204.660156 147.917969 202.847656 147.027344 201.425781 145.652344 C 200.300781 144.46875 199.539062 143.679688 199.246094 140.742188 C 198.910156 137.710938 199.308594 130.980469 199.683594 130.378906 C 202.328125 126.65625 201.300781 124.183594 201.519531 121.503906 C 202.851562 121.726562 202.4375 121.03125 204.726562 117.078125 C 205.527344 115.683594 206.441406 114.890625 206.976562 109.976562 C 207.066406 109.089844 207.171875 107.929688 206.5 107.519531 C 205.761719 107.078125 204.96875 107.332031 204.199219 107.710938 C 204.140625 107.363281 204.074219 107.015625 204.023438 106.664062 C 204.082031 106.78125 204.136719 106.902344 204.230469 106.992188 C 204.230469 106.992188 204.175781 106.441406 204.125 105.550781 C 204.195312 105.796875 204.210938 106.050781 204.269531 106.300781 C 204.421875 105.855469 204.167969 105.496094 204.375 105.085938 C 204.574219 104.429688 204.386719 104.628906 204.234375 103.441406 C 204.347656 103.585938 204.425781 103.753906 204.550781 103.890625 C 204.488281 103.519531 204.535156 103.128906 204.386719 102.777344 C 204.351562 102.566406 204.5625 102.417969 204.597656 102.222656 C 204.617188 102.09375 204.558594 101.980469 204.519531 101.863281 C 204.546875 101.742188 204.617188 101.628906 204.652344 101.507812 C 204.589844 101.3125 204.511719 101.121094 204.445312 100.925781 C 204.585938 101.050781 204.710938 101.191406 204.851562 101.3125 C 204.726562 101.097656 204.457031 100.519531 204.613281 100.316406 C 204.679688 100.09375 204.519531 99.890625 204.414062 99.710938 C 204.515625 99.59375 204.578125 99.449219 204.621094 99.300781 C 204.539062 99.117188 204.457031 98.929688 204.375 98.746094 C 204.492188 98.792969 204.613281 98.839844 204.738281 98.878906 C 204.632812 98.769531 204.671875 98.605469 204.726562 98.480469 C 204.753906 98.414062 204.996094 98.253906 204.566406 97.796875 C 204.542969 97.644531 204.65625 97.507812 204.722656 97.378906 C 205.015625 97.558594 205.210938 97.847656 205.386719 98.132812 C 205.226562 97.527344 204.554688 96.738281 204.132812 96.273438 C 204.597656 96.289062 205.121094 97.039062 205.375 97.425781 C 205.34375 97.148438 205.03125 96.402344 203.980469 95.660156 C 204.136719 95.699219 204.300781 95.699219 204.464844 95.6875 C 204.03125 95.4375 203.65625 95.09375 203.34375 94.707031 C 203.523438 94.839844 203.714844 94.957031 203.910156 95.074219 C 203.644531 94.796875 203.4375 94.46875 203.253906 94.136719 C 203.484375 94.246094 203.710938 94.359375 203.945312 94.460938 C 203.089844 93.527344 203.304688 94.128906 202.609375 92.917969 C 202.972656 92.976562 203.019531 93.105469 203.28125 93.09375 C 202.929688 92.949219 202.5625 92.402344 202.511719 92.335938 C 202.6875 92.308594 202.855469 92.242188 203.003906 92.140625 C 201.9375 91.949219 202.054688 92.03125 200.816406 90.972656 C 201 91.082031 201.1875 91.183594 201.386719 91.257812 C 201.09375 90.925781 200.78125 90.609375 200.496094 90.273438 C 200.679688 90.367188 200.847656 90.488281 201.03125 90.582031 C 199.914062 89.105469 201.09375 90.316406 199.402344 88.816406 C 199.28125 88.703125 199.113281 88.660156 198.984375 88.554688 C 198.78125 88.375 198.667969 88.597656 198.410156 88.054688 C 198.6875 88.085938 198.960938 88.1875 199.175781 88.367188 C 198.925781 87.992188 198.058594 87.609375 197.640625 87.4375 C 197.640625 87.429688 197.640625 87.414062 197.640625 87.40625 C 197.878906 87.300781 198.148438 87.347656 198.390625 87.417969 C 198.085938 87.140625 197.367188 87.132812 197.167969 87.121094 C 196.925781 86.960938 196.777344 86.695312 196.609375 86.464844 C 196.375 86.488281 196.136719 86.53125 195.898438 86.519531 C 195.8125 86.367188 195.726562 86.21875 195.636719 86.070312 C 195.765625 85.785156 196.015625 85.578125 196.289062 85.441406 C 195.367188 85.65625 195.074219 86.160156 194.847656 85.820312 C 194.742188 85.648438 194.929688 85.449219 194.828125 85.28125 C 194.695312 85.15625 194.472656 85.277344 194.34375 85.140625 C 194.246094 85.019531 194.359375 84.851562 194.285156 84.722656 C 194.1875 84.738281 194.085938 84.792969 193.992188 84.757812 C 193.914062 84.570312 194.300781 84.289062 194.566406 84.15625 C 194.175781 84.230469 193.785156 84.320312 193.394531 84.402344 C 193.507812 84.273438 193.640625 84.164062 193.796875 84.089844 C 193.828125 84.070312 193.875 84.058594 193.894531 84.019531 C 193.417969 84.035156 192.824219 84.414062 192.464844 84.617188 C 192.523438 84.371094 192.742188 84.21875 192.941406 84.089844 C 192.691406 84.039062 192.417969 84.339844 192.15625 84.613281 C 192.28125 84.339844 191.992188 84.222656 190.726562 83.167969 C 190.847656 83.351562 190.949219 83.550781 191.0625 83.734375 C 190.929688 83.722656 190.808594 83.78125 190.695312 83.84375 C 190.425781 83.300781 189.226562 82.492188 188.714844 82.164062 C 189.179688 82.613281 189.589844 83.125 189.902344 83.695312 C 189.671875 83.574219 189.40625 83.546875 189.152344 83.515625 C 188.875 83.03125 188.304688 82.414062 187.746094 82.378906 C 188.207031 82.800781 188.617188 83.402344 188.707031 83.621094 C 188.398438 83.5625 188.089844 83.503906 187.777344 83.476562 C 187.652344 83.464844 187.542969 83.394531 187.417969 83.375 C 187.144531 83.355469 186.871094 83.355469 186.597656 83.328125 C 186.316406 83 186.023438 82.671875 185.664062 82.425781 C 185.914062 82.664062 186.089844 82.96875 186.203125 83.292969 C 185.550781 83.652344 185.5625 83.863281 185.300781 83.554688 C 185.25 83.359375 185.257812 83.148438 185.214844 82.949219 C 185.0625 83.050781 185.03125 83.25 185.042969 83.417969 C 185.046875 83.515625 185.105469 83.59375 185.140625 83.683594 C 184.988281 83.769531 184.796875 83.679688 184.632812 83.664062 C 184.632812 83.363281 184.261719 83.101562 183.996094 82.96875 C 184.433594 83.425781 184.160156 83.488281 184.210938 83.78125 C 184.132812 83.90625 183.617188 84.0625 183.421875 83.960938 C 183.28125 83.886719 183.105469 83.800781 183.082031 83.625 C 182.984375 83.433594 182.753906 83.371094 182.5625 83.324219 C 182.675781 83.417969 182.832031 83.53125 182.550781 83.84375 C 182.253906 83.851562 181.957031 83.832031 181.667969 83.765625 C 181.46875 83.542969 181.152344 82.996094 180.730469 82.832031 C 181.261719 83.222656 181.339844 83.730469 181.597656 83.980469 C 181.4375 83.996094 181.273438 83.984375 181.117188 83.957031 C 180.6875 83.730469 180.046875 83.542969 179.578125 83.523438 C 179.871094 83.667969 180.152344 83.839844 180.382812 84.074219 C 180.148438 84.101562 179.917969 84.144531 179.6875 84.175781 C 179.105469 83.964844 178.289062 83.992188 177.832031 84.171875 C 178.230469 84.183594 178.632812 84.25 179.003906 84.394531 C 178.003906 84.421875 177.871094 84.242188 176.839844 85.019531 C 176.988281 85.03125 177.167969 84.992188 177.261719 85.53125 C 177.101562 85.375 176.875 85.320312 176.660156 85.28125 C 176.882812 85.515625 176.878906 85.878906 177.097656 86.117188 C 177.097656 86.128906 177.097656 86.148438 177.097656 86.160156 C 176.980469 86.15625 176.765625 86.136719 176.660156 86.085938 C 176.148438 85.578125 174.53125 84.894531 173.871094 84.625 C 174.230469 84.925781 174.589844 85.226562 174.933594 85.546875 C 174.265625 85.046875 173.621094 84.972656 173.292969 85.066406 C 174.214844 85.140625 175.253906 86.257812 175.808594 86.988281 C 175.53125 86.703125 175.140625 86.542969 174.746094 86.5 C 175.140625 86.695312 175.539062 87.363281 175.636719 87.574219 C 175.105469 86.972656 173.714844 86.296875 172.972656 85.984375 C 173.304688 86.195312 173.625 86.4375 173.898438 86.722656 C 173.515625 86.503906 172.605469 86.257812 172.472656 86.253906 C 173.03125 86.476562 173.535156 86.808594 174.023438 87.152344 C 173.082031 86.679688 170.914062 86.363281 170.738281 86.375 C 171.730469 86.703125 172.695312 87.113281 173.65625 87.519531 C 173.496094 87.535156 172.292969 87.230469 170.242188 87.917969 C 170.777344 87.824219 171.316406 87.742188 171.859375 87.742188 C 170.960938 87.835938 169.679688 88.433594 168.882812 88.859375 C 169.105469 88.839844 169.332031 88.78125 169.558594 88.804688 C 169.570312 88.8125 169.597656 88.828125 169.613281 88.835938 C 169.253906 89.109375 168.867188 89.347656 168.492188 89.597656 C 168.429688 89.285156 168.1875 88.921875 167.796875 88.890625 C 168.082031 89.269531 168.125 89.453125 168.289062 89.585938 C 168.1875 89.84375 167.992188 90.050781 167.820312 90.261719 C 167.5 90.222656 167.199219 90.390625 166.957031 90.585938 C 167.078125 90.558594 167.226562 90.492188 167.339844 90.578125 C 167.5 90.742188 167.199219 91.308594 166.914062 91.300781 C 166.996094 91.40625 167.054688 91.53125 167.089844 91.660156 C 166.65625 91.601562 166.242188 91.796875 165.886719 92.023438 C 166.03125 92.003906 166.453125 91.789062 167.132812 92.058594 C 166.820312 92.046875 166.554688 92.238281 166.296875 92.386719 C 166.472656 92.363281 166.671875 92.347656 166.832031 92.445312 C 166.929688 92.496094 166.851562 92.453125 166.703125 93.574219 C 166.5625 93.351562 166.34375 93.1875 166.097656 93.105469 C 166.222656 93.25 166.296875 93.425781 166.363281 93.605469 C 166.222656 93.472656 166.027344 93.441406 165.84375 93.429688 C 165.964844 93.628906 166.089844 93.828125 166.265625 93.980469 C 166.375 94.097656 166.472656 93.890625 166.570312 94.203125 C 166.328125 94.457031 166.09375 94.710938 165.859375 94.96875 C 166.121094 94.796875 166.351562 94.578125 166.636719 94.449219 C 166.574219 94.699219 166.511719 94.945312 166.460938 95.199219 C 166.171875 95.246094 165.941406 95.445312 165.71875 95.621094 C 165.945312 95.632812 166.171875 95.613281 166.398438 95.617188 C 166.179688 95.652344 165.980469 95.773438 165.839844 95.941406 C 165.972656 95.898438 166.140625 95.804688 166.320312 96.140625 C 166.003906 96.359375 165.4375 97.085938 165.332031 97.242188 C 165.625 96.972656 165.878906 96.660156 166.207031 96.429688 C 166.304688 97.066406 165.757812 97.351562 165.566406 97.976562 C 165.765625 97.761719 165.839844 97.457031 166.039062 97.246094 C 166.007812 97.535156 165.945312 97.824219 165.855469 98.101562 C 166.246094 98.476562 166.121094 98.558594 165.765625 99 C 165.84375 98.972656 165.921875 98.953125 166.003906 98.945312 C 165.933594 99.09375 166.050781 99.484375 166.171875 99.953125 C 166.023438 100.476562 165.898438 101.011719 165.789062 101.546875 C 165.804688 101.570312 165.828125 101.617188 165.839844 101.640625 C 165.871094 101.34375 165.949219 101.039062 166.105469 100.777344 C 166.15625 100.820312 166.160156 100.890625 166.167969 100.953125 C 166.25 101.789062 165.917969 102.019531 166.414062 102.648438 C 167.015625 103.507812 166.394531 103.246094 166.355469 103.488281 C 166.40625 103.660156 166.570312 103.761719 166.640625 103.925781 C 166.550781 104.175781 166.476562 104.429688 166.386719 104.683594 C 166.511719 104.59375 166.628906 104.488281 166.773438 104.429688 C 166.683594 105.035156 166.789062 105.28125 166.753906 105.550781 C 166.753906 105.550781 166.480469 106.210938 166.398438 106.621094 C 166.527344 106.410156 166.636719 106.1875 166.777344 105.984375 C 166.898438 106.535156 166.867188 106.488281 166.640625 107.324219 C 165.746094 107.113281 164.855469 107.390625 164.734375 108.570312 C 164.640625 109.910156 165.199219 113.027344 165.636719 114.359375 C 166.210938 116.085938 167.851562 118.015625 169.039062 120.953125 C 169.269531 121.519531 169.832031 121.601562 170.425781 121.476562 C 170.667969 124.511719 169.402344 127.023438 173.109375 131.453125 C 173.023438 141.011719 171.816406 144.738281 168.003906 147.683594 C 168.011719 147.519531 168.039062 147.355469 168.078125 147.195312 C 167.636719 147.277344 166.457031 147.070312 166.070312 147.339844 C 165.835938 147.503906 165.46875 148.136719 165.390625 148.460938 C 165.304688 148.773438 165.398438 148.820312 165.152344 148.894531 C 164.292969 149.097656 164.21875 148.757812 163.59375 148.867188 C 163.34375 148.910156 163.105469 149.003906 162.855469 149.046875 C 162.660156 149.082031 162.449219 149.121094 162.3125 149.273438 C 162.144531 149.460938 161.675781 150.203125 161.667969 150.640625 C 161.683594 150.835938 161.433594 150.828125 159.566406 151.660156 C 156.878906 152.832031 157.796875 152.230469 156.460938 153.074219 C 155.183594 153.902344 151.980469 156.199219 149.386719 156.765625 C 148.121094 157.0625 147.152344 156.910156 145.8125 157.886719 C 144.246094 159.042969 144.5625 159.199219 144.535156 159.46875 C 144.457031 159.523438 144.359375 159.53125 144.269531 159.554688 C 143.839844 159.660156 143.449219 159.890625 143.097656 160.160156 C 139.558594 162.871094 138.4375 167.742188 137.582031 170.359375 C 136.253906 174.441406 136.644531 172.074219 136.296875 176.394531 C 136.007812 180.875 135.851562 177.828125 135.863281 185.445312 C 135.863281 186.398438 135.878906 187.359375 135.71875 188.304688 C 135.691406 188.421875 135.671875 188.542969 135.636719 188.660156 L 239.140625 188.660156 C 237.273438 183.046875 238.867188 183.445312 238.851562 180.996094 Z M 238.851562 180.996094 " fill-opacity="1" fill-rule="nonzero"/></g><g clip-path="url(#af280eeb34)"><path stroke-linecap="round" transform="matrix(0.223446, 0, 0, 0.222707, 130.118317, 191.380211)" fill="none" stroke-linejoin="round" d="M 483.000446 34.00387 L 30.500741 34.00387 " stroke="#000000" stroke-width="10" stroke-opacity="1" stroke-miterlimit="4"/></g><g clip-path="url(#c7a3fa105f)"><path stroke-linecap="round" transform="matrix(0.223446, 0, 0, 0.222707, 130.118317, 191.380211)" fill="none" stroke-linejoin="round" d="M 483.000446 98.006709 L 30.500741 98.006709 " stroke="#000000" stroke-width="10" stroke-opacity="1" stroke-miterlimit="4"/></g><g clip-path="url(#139f211c3a)"><path stroke-linecap="round" transform="matrix(0.223446, 0, 0, 0.222707, 130.118317, 191.380211)" fill="none" stroke-linejoin="round" d="M 483.000446 161.992009 L 30.500741 161.992009 " stroke="#000000" stroke-width="10" stroke-opacity="1" stroke-miterlimit="4"/></g><g clip-path="url(#9be7751c92)"><path fill="#000000" d="M 150.726562 237.003906 C 142.441406 237.003906 135.730469 243.71875 135.730469 252 C 135.730469 260.28125 142.441406 266.996094 150.726562 266.996094 C 159.007812 266.996094 165.722656 260.28125 165.722656 252 C 165.722656 243.71875 159.007812 237.003906 150.726562 237.003906 Z M 158.457031 257.726562 C 157.816406 258.71875 157.257812 259.753906 154.566406 259.8125 C 151.816406 259.816406 148.976562 257.539062 146.902344 255.269531 C 144.835938 253.257812 142.925781 250.660156 142.925781 248.144531 C 142.988281 245.453125 144.019531 244.894531 145.015625 244.25 C 145.015625 244.25 145.5625 244.019531 146.035156 244.433594 C 146.507812 244.847656 148.589844 246.925781 148.589844 246.925781 C 148.589844 246.925781 149.328125 247.542969 148.816406 248.222656 C 148.410156 248.765625 147.476562 249.769531 147.355469 249.902344 L 147.703125 250.5625 C 148.175781 251.335938 149.070312 252.695312 150.410156 253.796875 C 151.3125 254.542969 152.84375 255.355469 152.84375 255.355469 C 153.0625 255.152344 153.976562 254.304688 154.484375 253.925781 C 155.167969 253.414062 155.785156 254.152344 155.785156 254.152344 C 155.785156 254.152344 157.863281 256.234375 158.277344 256.707031 C 158.6875 257.179688 158.457031 257.726562 158.457031 257.726562 Z M 158.457031 257.726562 " fill-opacity="1" fill-rule="nonzero"/></g><g clip-path="url(#a44663bf99)"><path fill="#000000" d="M 224.390625 237.015625 C 232.472656 237.015625 239.015625 242.902344 239.015625 250.160156 C 239.015625 254.257812 236.933594 257.90625 233.667969 260.320312 L 233.667969 267.007812 L 229.238281 262.546875 C 227.714844 263.027344 226.089844 263.308594 224.390625 263.308594 C 216.308594 263.308594 209.765625 257.421875 209.765625 250.160156 C 209.765625 242.902344 216.308594 237.015625 224.390625 237.015625 Z M 222.636719 255.101562 L 230.8125 255.101562 C 231.230469 255.101562 231.566406 254.761719 231.566406 254.34375 C 231.566406 253.925781 231.230469 253.582031 230.8125 253.582031 L 222.636719 253.582031 C 222.222656 253.582031 221.886719 253.925781 221.886719 254.34375 C 221.886719 254.761719 222.222656 255.101562 222.636719 255.101562 Z M 217.964844 251.125 L 230.8125 251.125 C 231.230469 251.125 231.566406 250.785156 231.566406 250.367188 C 231.566406 249.949219 231.230469 249.609375 230.8125 249.609375 L 217.964844 249.609375 C 217.550781 249.609375 217.214844 249.949219 217.214844 250.367188 C 217.214844 250.785156 217.550781 251.125 217.964844 251.125 Z M 217.964844 247.152344 L 230.8125 247.152344 C 231.230469 247.152344 231.566406 246.808594 231.566406 246.390625 C 231.566406 245.972656 231.230469 245.632812 230.8125 245.632812 L 217.964844 245.632812 C 217.550781 245.632812 217.214844 245.972656 217.214844 246.390625 C 217.214844 246.808594 217.550781 247.152344 217.964844 247.152344 Z M 217.964844 247.152344 " fill-opacity="1" fill-rule="nonzero"/></g></svg>